<svg id="molecule_icon" viewBox="-752.4413816937533 -752.4413816937533 1504.8827633875067 1504.8827633875067" xmlns="http://www.w3.org/2000/svg" xmlns:xlink="http://www.w3.org/1999/xlink">
	<defs>
		<g id="C">
			<circle cx="0" cy="0" r="100.0" fill="#000000" stroke="#000000" stroke-width="10.0" />
			<path d="M70,-70 A90.0,90.0 0, 1, 1 -70,70 M-70,70 A120.0,120.0 0, 0,0 70, -70 Z" fill="#000000" stroke-width="0" />
		</g>
		<g id="O">
			<circle cx="0" cy="0" r="100.0" fill="#000000" stroke="#000000" stroke-width="10.0" />
			<path d="M70,-70 A90.0,90.0 0, 1, 1 -70,70 M-70,70 A120.0,120.0 0, 0,0 70, -70 Z" fill="#000000" stroke-width="0" />
		</g>
		<g id="N">
			<circle cx="0" cy="0" r="100.0" fill="#000000" stroke="#000000" stroke-width="10.0" />
			<path d="M70,-70 A90.0,90.0 0, 1, 1 -70,70 M-70,70 A120.0,120.0 0, 0,0 70, -70 Z" fill="#000000" stroke-width="0" />
		</g>
		<g id="H">
			<circle cx="0" cy="0" r="100.0" fill="#000000" stroke="#000000" stroke-width="10.0" />
			<path d="M70,-70 A90.0,90.0 0, 1, 1 -70,70 M-70,70 A120.0,120.0 0, 0,0 70, -70 Z" fill="#000000" stroke-width="0" />
		</g>
	</defs>
	<line stroke="#131313" stroke-linecap="round" stroke-width="45.0" x1="-417.0645835980502" y1="143.3242925158414" x2="-282.24938645449555" y2="64.82509001645174" />
	<line stroke="#979797" stroke-linecap="round" stroke-width="25.0" x1="-417.0645835980502" y1="143.3242925158414" x2="-282.24938645449555" y2="64.82509001645174" />
	<line stroke="#131313" stroke-linecap="round" stroke-width="45.0" x1="-417.0645835980502" y1="143.3242925158414" x2="-338.56537217226895" y2="278.1394896593961" />
	<line stroke="#979797" stroke-linecap="round" stroke-width="25.0" x1="-417.0645835980502" y1="143.3242925158414" x2="-338.56537217226895" y2="278.1394896593961" />
	<line stroke="#131313" stroke-linecap="round" stroke-width="45.0" x1="-417.0645835980502" y1="143.3242925158414" x2="-494.56537217226895" y2="278.70109061154454" />
	<line stroke="#979797" stroke-linecap="round" stroke-width="25.0" x1="-417.0645835980502" y1="143.3242925158414" x2="-494.56537217226895" y2="278.70109061154454" />
	<line stroke="#131313" stroke-linecap="round" stroke-width="45.0" x1="-417.0645835980502" y1="143.3242925158414" x2="-552.4413816937533" y2="65.79228983792392" />
	<line stroke="#979797" stroke-linecap="round" stroke-width="25.0" x1="-417.0645835980502" y1="143.3242925158414" x2="-552.4413816937533" y2="65.79228983792392" />
	<use href="#C" xlink:href="#C" transform="translate(-417.0645835980502 143.3242925158414)" />
	<line stroke="#131313" stroke-linecap="round" stroke-width="45.0" x1="-245.24938645449555" y1="64.82509001645174" x2="-245.81098740664396" y2="-91.17490700808438" />
	<line stroke="#131313" stroke-linecap="round" stroke-width="45.0" x1="-319.24938645449555" y1="64.82509001645174" x2="-319.81098740664396" y2="-91.17490700808438" />
	<line stroke="#979797" stroke-linecap="round" stroke-width="25.0" x1="-245.24938645449555" y1="64.82509001645174" x2="-245.81098740664396" y2="-91.17490700808438" />
	<line stroke="#979797" stroke-linecap="round" stroke-width="25.0" x1="-319.24938645449555" y1="64.82509001645174" x2="-319.81098740664396" y2="-91.17490700808438" />
	<line stroke="#131313" stroke-linecap="round" stroke-width="45.0" x1="-282.24938645449555" y1="64.82509001645174" x2="-146.8725764569369" y2="142.35708823117344" />
	<line stroke="#979797" stroke-linecap="round" stroke-width="25.0" x1="-282.24938645449555" y1="64.82509001645174" x2="-146.8725764569369" y2="142.35708823117344" />
	<use href="#C" xlink:href="#C" transform="translate(-282.24938645449555 64.82509001645174)" />
	<use href="#O" xlink:href="#O" transform="translate(-282.81098740664396 -91.17490700808438)" />
	<line stroke="#131313" stroke-linecap="round" stroke-width="45.0" x1="-146.8725764569369" y1="142.35708823117344" x2="-12.05738228884611" y2="63.857890194979575" />
	<line stroke="#979797" stroke-linecap="round" stroke-width="25.0" x1="-146.8725764569369" y1="142.35708823117344" x2="-12.05738228884611" y2="63.857890194979575" />
	<line stroke="#131313" stroke-linecap="round" stroke-width="45.0" x1="-146.8725764569369" y1="142.35708823117344" x2="-146.31098740664396" y2="298.32589346798983" />
	<line stroke="#979797" stroke-linecap="round" stroke-width="25.0" x1="-146.8725764569369" y1="142.35708823117344" x2="-146.31098740664396" y2="298.32589346798983" />
	<use href="#N" xlink:href="#N" transform="translate(-146.8725764569369 142.35708823117344)" />
	<line stroke="#131313" stroke-linecap="round" stroke-width="45.0" x1="-12.587781039151288" y1="-92.14211129275236" x2="-12.05738228884611" y2="63.857890194979575" />
	<line stroke="#979797" stroke-linecap="round" stroke-width="25.0" x1="-12.587781039151288" y1="-92.14211129275236" x2="-12.05738228884611" y2="63.857890194979575" />
	<line stroke="#131313" stroke-linecap="round" stroke-width="45.0" x1="-30.05738228884611" y1="95.85789019497957" x2="105.31941878232088" y2="173.3898898974332" />
	<line stroke="#131313" stroke-linecap="round" stroke-width="45.0" x1="5.94261771115389" y1="31.857890194979575" x2="141.3194187823209" y2="109.38988989743319" />
	<line stroke="#979797" stroke-linecap="round" stroke-width="25.0" x1="-30.05738228884611" y1="95.85789019497957" x2="105.31941878232088" y2="173.3898898974332" />
	<line stroke="#979797" stroke-linecap="round" stroke-width="25.0" x1="5.94261771115389" y1="31.857890194979575" x2="141.3194187823209" y2="109.38988989743319" />
	<use href="#C" xlink:href="#C" transform="translate(-12.05738228884611 63.857890194979575)" />
	<line stroke="#131313" stroke-linecap="round" stroke-width="45.0" x1="123.31941878232088" y1="141.3898898974332" x2="258.13462782773104" y2="62.89069037350741" />
	<line stroke="#979797" stroke-linecap="round" stroke-width="25.0" x1="123.31941878232088" y1="141.3898898974332" x2="258.13462782773104" y2="62.89069037350741" />
	<line stroke="#131313" stroke-linecap="round" stroke-width="45.0" x1="123.31941878232088" y1="141.3898898974332" x2="123.88101973446932" y2="297.35870108517736" />
	<line stroke="#979797" stroke-linecap="round" stroke-width="25.0" x1="123.31941878232088" y1="141.3898898974332" x2="123.88101973446932" y2="297.35870108517736" />
	<use href="#C" xlink:href="#C" transform="translate(123.31941878232088 141.3898898974332)" />
	<line stroke="#131313" stroke-linecap="round" stroke-width="45.0" x1="258.13462782773104" y1="62.89069037350741" x2="393.5426087847623" y2="140.39149084958163" />
	<line stroke="#979797" stroke-linecap="round" stroke-width="25.0" x1="258.13462782773104" y1="62.89069037350741" x2="393.5426087847623" y2="140.39149084958163" />
	<line stroke="#131313" stroke-linecap="round" stroke-width="45.0" x1="295.13462782773104" y1="62.89069037350741" x2="294.6042097369107" y2="-93.10931557742033" />
	<line stroke="#131313" stroke-linecap="round" stroke-width="45.0" x1="221.13462782773104" y1="62.89069037350741" x2="220.60420973691072" y2="-93.10931557742033" />
	<line stroke="#979797" stroke-linecap="round" stroke-width="25.0" x1="295.13462782773104" y1="62.89069037350741" x2="294.6042097369107" y2="-93.10931557742033" />
	<line stroke="#979797" stroke-linecap="round" stroke-width="25.0" x1="221.13462782773104" y1="62.89069037350741" x2="220.60420973691072" y2="-93.10931557742033" />
	<use href="#C" xlink:href="#C" transform="translate(258.13462782773104 62.89069037350741)" />
	<line stroke="#131313" stroke-linecap="round" stroke-width="45.0" x1="257.6042097369107" y1="-93.10931557742033" x2="392.38822401913734" y2="-171.57730843630705" />
	<line stroke="#979797" stroke-linecap="round" stroke-width="25.0" x1="257.6042097369107" y1="-93.10931557742033" x2="392.38822401913734" y2="-171.57730843630705" />
	<line stroke="#131313" stroke-linecap="round" stroke-width="45.0" x1="257.6042097369107" y1="-93.10931557742033" x2="122.196216878024" y2="-170.64129891482267" />
	<line stroke="#979797" stroke-linecap="round" stroke-width="25.0" x1="257.6042097369107" y1="-93.10931557742033" x2="122.196216878024" y2="-170.64129891482267" />
	<use href="#C" xlink:href="#C" transform="translate(257.6042097369107 -93.10931557742033)" />
	<line stroke="#131313" stroke-linecap="round" stroke-width="45.0" x1="104.196216878024" y1="-202.64129891482267" x2="-30.587781039151288" y2="-124.14211129275236" />
	<line stroke="#131313" stroke-linecap="round" stroke-width="45.0" x1="140.19621687802402" y1="-138.64129891482267" x2="5.412218960848712" y2="-60.14211129275236" />
	<line stroke="#979797" stroke-linecap="round" stroke-width="25.0" x1="104.196216878024" y1="-202.64129891482267" x2="-30.587781039151288" y2="-124.14211129275236" />
	<line stroke="#979797" stroke-linecap="round" stroke-width="25.0" x1="140.19621687802402" y1="-138.64129891482267" x2="5.412218960848712" y2="-60.14211129275236" />
	<line stroke="#131313" stroke-linecap="round" stroke-width="45.0" x1="122.196216878024" y1="-170.64129891482267" x2="121.63461592587556" y2="-326.61011605349455" />
	<line stroke="#979797" stroke-linecap="round" stroke-width="25.0" x1="122.196216878024" y1="-170.64129891482267" x2="121.63461592587556" y2="-326.61011605349455" />
	<use href="#C" xlink:href="#C" transform="translate(122.196216878024 -170.64129891482267)" />
	<line stroke="#131313" stroke-linecap="round" stroke-width="45.0" x1="-12.587781039151288" y1="-92.14211129275236" x2="-147.9957783612338" y2="-169.6428998669711" />
	<line stroke="#979797" stroke-linecap="round" stroke-width="25.0" x1="-12.587781039151288" y1="-92.14211129275236" x2="-147.9957783612338" y2="-169.6428998669711" />
	<use href="#C" xlink:href="#C" transform="translate(-12.587781039151288 -92.14211129275236)" />
	<line stroke="#131313" stroke-linecap="round" stroke-width="45.0" x1="392.38822401913734" y1="-171.57730843630705" x2="391.8266230669889" y2="-327.5773084363071" />
	<line stroke="#979797" stroke-linecap="round" stroke-width="25.0" x1="392.38822401913734" y1="-171.57730843630705" x2="391.8266230669889" y2="-327.5773084363071" />
	<use href="#O" xlink:href="#O" transform="translate(392.38822401913734 -171.57730843630705)" />
	<use href="#H" xlink:href="#H" transform="translate(-338.56537217226895 278.1394896593961)" />
	<use href="#H" xlink:href="#H" transform="translate(-494.56537217226895 278.70109061154454)" />
	<use href="#H" xlink:href="#H" transform="translate(-552.4413816937533 65.79228983792392)" />
	<use href="#H" xlink:href="#H" transform="translate(-146.31098740664396 298.32589346798983)" />
	<use href="#H" xlink:href="#H" transform="translate(123.88101973446932 297.35870108517736)" />
	<use href="#H" xlink:href="#H" transform="translate(393.5426087847623 140.39149084958163)" />
	<use href="#H" xlink:href="#H" transform="translate(121.63461592587556 -326.61011605349455)" />
	<use href="#H" xlink:href="#H" transform="translate(-147.9957783612338 -169.6428998669711)" />
	<use href="#H" xlink:href="#H" transform="translate(391.8266230669889 -327.5773084363071)" />
</svg>